<?xml version="1.0" encoding="UTF-8"?>
<svg version="1.1" xmlns="http://www.w3.org/2000/svg" width="200" height="200">
<path d="M0 0 C1.59085792 -0.00842222 3.18170586 -0.01895134 4.77253723 -0.03141785 C9.07649479 -0.05839675 13.379871 -0.05378323 17.68387556 -0.04171729 C21.28461323 -0.034568 24.8852446 -0.04309763 28.48597395 -0.05162269 C36.98505069 -0.07155375 45.48384601 -0.06603068 53.98291016 -0.04394531 C62.73319295 -0.0215926 71.48273754 -0.03917138 80.23295057 -0.0769946 C87.76192524 -0.10828847 95.29067212 -0.11612618 102.8197037 -0.10504085 C107.30925547 -0.09857156 111.7983817 -0.10047018 116.28788376 -0.12436485 C120.5121002 -0.14570405 124.73528059 -0.13752723 128.9594326 -0.10727119 C130.50328669 -0.10097326 132.04722222 -0.10473306 133.59101677 -0.11968231 C142.78559424 -0.20145169 150.02050389 0.49934555 157.28759766 6.6628418 C162.58873125 12.44288629 164.52987051 18.454602 164.56175232 26.31536865 C164.566989 26.95864082 164.57222568 27.60191298 164.57762104 28.26467824 C164.59254506 30.40625257 164.5933245 32.54758636 164.59399414 34.68920898 C164.60162081 36.23050333 164.61004918 37.77179388 164.61921692 39.31307983 C164.64112007 43.49095609 164.6499553 47.66875918 164.65504336 51.84668636 C164.65869221 54.46029204 164.66493504 57.0738787 164.67204475 59.68747711 C164.69652575 68.81534157 164.70958801 77.94314932 164.71313477 87.07104492 C164.7167679 95.56328523 164.7466507 104.05516366 164.78853935 112.54729342 C164.82329633 119.8511321 164.83868415 127.15485117 164.8393808 134.45877194 C164.84017184 138.81532518 164.8488304 143.17150962 164.87737846 147.52797699 C164.90365186 151.62889239 164.90571324 155.72913568 164.88972282 159.8300972 C164.8879156 161.32882026 164.89453308 162.82758281 164.91054153 164.32622147 C165.01127077 174.37467721 163.89621791 182.21629059 157.22509766 190.1003418 C156.26603516 190.8737793 156.26603516 190.8737793 155.28759766 191.6628418 C154.32853516 192.4672168 154.32853516 192.4672168 153.35009766 193.2878418 C148.84873637 196.28874932 145.02777713 196.91408784 139.65921021 196.92353821 C139.00650866 196.92736376 138.35380712 196.9311893 137.68132675 196.93513077 C135.50198663 196.94542026 133.32291197 196.94147643 131.14355469 196.9375 C129.5778377 196.94184876 128.01212284 196.94703245 126.44641113 196.95298767 C122.19841479 196.96637213 117.95050746 196.9669569 113.70249414 196.96442437 C110.15384706 196.96335417 106.60521794 196.96823935 103.0565747 196.97302979 C94.68288507 196.98412331 86.3092403 196.98456342 77.93554688 196.97851562 C69.3030564 196.97247667 60.67072896 196.9847852 52.0382663 197.00608569 C44.6215464 197.02371204 37.20487834 197.02970138 29.78813827 197.02644795 C25.36079023 197.02463642 20.93355845 197.02725822 16.5062294 197.04116249 C12.34143891 197.05375285 8.17690214 197.05178537 4.01211548 197.0387516 C2.48634632 197.0363888 0.96055924 197.03910989 -0.56518936 197.04737473 C-2.65376771 197.05786973 -4.74149902 197.04972061 -6.83004761 197.0370636 C-7.99699598 197.03723134 -9.16394436 197.03739908 -10.36625481 197.03757191 C-17.99291337 196.1834737 -23.53868079 192.14021293 -28.71240234 186.6628418 C-32.22751347 180.99330773 -32.83460797 175.81912618 -32.85957336 169.24446106 C-32.86672867 167.94784546 -32.87388397 166.65122986 -32.8812561 165.31532288 C-32.88409603 163.8853457 -32.8868078 162.45536826 -32.8894043 161.02539062 C-32.89567343 159.51380254 -32.90232062 158.00221599 -32.90931702 156.4906311 C-32.93030673 151.53372256 -32.94071479 146.57681389 -32.95068359 141.61987305 C-32.95473308 139.90979179 -32.95885006 138.19971068 -32.96303368 136.48962975 C-32.98207434 128.45389282 -32.9963076 120.41816501 -33.00464565 112.38240987 C-33.01441353 103.12291911 -33.040726 93.86366768 -33.08114654 84.60426122 C-33.11135764 77.43633318 -33.12611925 70.26847356 -33.12942666 63.10048312 C-33.13177146 58.82444191 -33.14065736 54.54865671 -33.16588783 50.2726841 C-33.18926127 46.24655704 -33.19336488 42.22085291 -33.18312645 38.19467545 C-33.18263322 36.72336732 -33.18889042 35.25203771 -33.2026825 33.78079414 C-33.28898119 24.02305704 -32.73030589 15.68522123 -26.46240234 7.8503418 C-25.55490234 7.1284668 -24.64740234 6.4065918 -23.71240234 5.6628418 C-23.22856771 5.23909869 -22.74473309 4.81535559 -22.2462368 4.37877178 C-15.55555369 -0.71088702 -8.00657533 -0.04891059 0 0 Z M26.6640625 56.33764648 C25.5008564 57.45752635 24.31283483 58.55154448 23.11962891 59.6394043 C13.20526341 68.92006808 0.03393572 84.02686581 -1.58740234 97.9128418 C-0.6632184 109.73379927 8.69420742 121.33103436 16.28759766 129.6628418 C17.58890625 131.14204102 17.58890625 131.14204102 18.91650391 132.65112305 C30.85898652 146.11102863 46.02661216 161.79655456 64.28759766 165.8503418 C76.55517594 166.45614813 89.14487455 155.25935775 97.81884766 147.5925293 C101.03576751 144.67715323 104.18234596 141.69655069 107.28759766 138.6628418 C107.85551025 138.11829346 108.42342285 137.57374512 109.00854492 137.01269531 C118.88433585 127.39440408 131.83080097 113.00396468 133.10009766 98.7878418 C132.3360785 87.7362159 124.35267355 77.62759028 117.28759766 69.6628418 C116.59923828 68.86620117 115.91087891 68.06956055 115.20166016 67.2487793 C112.93996559 64.67681617 110.62832694 62.16308195 108.28759766 59.6628418 C107.84432129 59.18556641 107.40104492 58.70829102 106.94433594 58.21655273 C96.5997174 47.1626095 81.965474 32.95650265 66.22509766 31.3503418 C50.52117277 32.59668504 37.45265014 45.8804251 26.6640625 56.33764648 Z " fill="#816CF6" transform="translate(33.71240234375,1.337158203125)"/>
<path d="M0 0 C12.64773497 7.81955398 21.88663317 29.34400169 26.4375 42.9375 C27.0758102 46.41274445 26.88044985 48.58229319 26 52 C16.64989749 63.9057972 -4.56860682 75.71475383 -19.5 78.3125 C-22.78834455 78.38281 -24.83441991 77.94365215 -27.5 76 C-37.57097022 65.71576218 -50.80159029 45.74564995 -52 31 C-50.11943157 22.97901198 -44.29793241 18.76908369 -37.65136719 14.48681641 C-34.97673747 12.84673226 -32.27963574 11.25612105 -29.5625 9.6875 C-28.69326904 9.18395996 -27.82403809 8.68041992 -26.9284668 8.16162109 C-9.13933033 -1.79790105 -9.13933033 -1.79790105 0 0 Z " fill="#806BF4" transform="translate(112,61)"/>
</svg>
